HIERARCHY
ROOT SpineBase
{
  OFFSET 0.000000 0.000000 0.000000
  CHANNELS 6 Xposition Yposition Zposition Zrotation Xrotation Yrotation
  JOINT SpineMid
  {
    OFFSET 0.000000 26.926890 -0.000000
    CHANNELS 3 Zrotation Xrotation Yrotation
    JOINT SpineShoulder
    {
      OFFSET -0.206386 20.011389 -0.650775
      CHANNELS 3 Zrotation Xrotation Yrotation
      JOINT Neck
      {
        OFFSET -0.102080 6.630380 -0.499902
        CHANNELS 3 Zrotation Xrotation Yrotation
        JOINT Head
        {
          OFFSET -1.581921 12.199122 1.156627
          CHANNELS 3 Zrotation Xrotation Yrotation
          End Site
          {
            OFFSET 0 0 0
          }
        }
      }
      JOINT ShoulderLeft
      {
        OFFSET -12.720388 -3.752665 4.890262
        CHANNELS 3 Zrotation Xrotation Yrotation
        JOINT ElbowLeft
        {
          OFFSET -0.503524 -24.622843 -1.895468
          CHANNELS 3 Zrotation Xrotation Yrotation
          JOINT WristLeft
          {
            OFFSET -0.064659 -18.304625 -10.237007
            CHANNELS 3 Zrotation Xrotation Yrotation
            JOINT HandLeft
            {
              OFFSET 4.134340 -1.669112 -4.391871
              CHANNELS 3 Zrotation Xrotation Yrotation
              JOINT HandTipLeft
              {
                OFFSET 1.730891 -2.085515 -2.922147
                CHANNELS 3 Zrotation Xrotation Yrotation
                End Site
                {
                  OFFSET 0 0 0
                }
              }
              JOINT ThumbLeft
              {
                OFFSET -1.163113 1.038399 -2.248550
                CHANNELS 3 Zrotation Xrotation Yrotation
                End Site
                {
                  OFFSET 0 0 0
                }
              }
            }
          }
        }
      }
      JOINT ShoulderRight
      {
        OFFSET 10.849559 -3.608727 -7.924566
        CHANNELS 3 Zrotation Xrotation Yrotation
        JOINT ElbowRight
        {
          OFFSET 0.905692 -22.633871 -4.277026
          CHANNELS 3 Zrotation Xrotation Yrotation
          JOINT WristRight
          {
            OFFSET -9.958369 -17.367045 -4.958213
            CHANNELS 3 Zrotation Xrotation Yrotation
            JOINT HandRight
            {
              OFFSET -1.814941 -4.219535 2.731562
              CHANNELS 3 Zrotation Xrotation Yrotation
              JOINT HandTipRight
              {
                OFFSET -5.532398 -3.062774 -0.402185
                CHANNELS 3 Zrotation Xrotation Yrotation
                End Site
                {
                  OFFSET 0 0 0
                }
              }
              JOINT ThumbRight
              {
                OFFSET 4.001261 -2.338231 1.611775
                CHANNELS 3 Zrotation Xrotation Yrotation
                End Site
                {
                  OFFSET 0 0 0
                }
              }
            }
          }
        }
      }
    }
  }
  JOINT HipLeft
  {
    OFFSET -5.639105 0.139471 -0.409424
    CHANNELS 3 Zrotation Xrotation Yrotation
    JOINT KneeLeft
    {
      OFFSET 1.798829 -29.430113 4.264632
      CHANNELS 3 Zrotation Xrotation Yrotation
      JOINT AnkleLeft
      {
        OFFSET 4.008730 -33.340013 6.297854
        CHANNELS 3 Zrotation Xrotation Yrotation
        JOINT FootLeft
        {
          OFFSET -3.906422 -2.192557 -10.985258
          CHANNELS 3 Zrotation Xrotation Yrotation
          End Site
          {
            OFFSET 0 0 0
          }
        }
      }
    }
  }
  JOINT HipRight
  {
    OFFSET 5.014794 1.255966 -5.693165
    CHANNELS 3 Zrotation Xrotation Yrotation
    JOINT KneeRight
    {
      OFFSET 6.085098 -30.466791 0.234168
      CHANNELS 3 Zrotation Xrotation Yrotation
      JOINT AnkleRight
      {
        OFFSET 4.648354 -32.448459 4.689233
        CHANNELS 3 Zrotation Xrotation Yrotation
        JOINT FootRight
        {
          OFFSET -3.982137 -2.639389 -9.739403
          CHANNELS 3 Zrotation Xrotation Yrotation
          End Site
          {
            OFFSET 0 0 0
          }
        }
      }
    }
  }
}
MOTION
Frames: 10
Frame Time: 0.033333
37.607475 69.959972 368.977517 -0.000000 -0.000000 26.378852 0.000000 0.000000 -26.378852 -0.000000 0.000000 0.000000 -0.000000 0.000000 0.000000 0.000000 0.000000 0.000000 -0.000000 0.000000 0.000000 -0.000000 0.000000 0.000000 -0.000000 0.000000 0.000000 -0.000000 0.000000 0.000000 0.000000 0.000000 0.000000 0.000000 0.000000 0.000000 -0.000000 0.000000 0.000000 -0.000000 0.000000 0.000000 -0.000000 0.000000 0.000000 -0.000000 0.000000 0.000000 0.000000 0.000000 0.000000 0.000000 0.000000 0.000000 0.000000 0.000000 -26.378852 -0.000000 0.000000 0.000000 -0.000000 0.000000 0.000000 0.000000 0.000000 0.000000 0.000000 0.000000 -26.378852 -0.000000 0.000000 0.000000 -0.000000 0.000000 0.000000 0.000000 0.000000 0.000000
37.679109 69.959221 368.972167 0.128193 0.029941 26.234945 -0.128224 0.029811 -26.234945 -0.000000 0.000000 0.000000 -0.000000 0.000000 0.000000 0.000000 0.000000 0.000000 -0.000000 0.000000 0.000000 -0.000000 0.000000 0.000000 0.812652 0.718724 -0.351186 -1.058757 -4.734408 -2.773810 0.000000 0.000000 0.000000 0.000000 0.000000 0.000000 -0.000000 0.000000 0.000000 -0.182908 -0.741182 0.476481 -0.431990 2.256558 -1.529500 1.374783 -0.530201 -0.753549 0.000000 0.000000 0.000000 0.000000 0.000000 0.000000 -0.128224 0.029811 -26.234945 -0.000000 0.000000 0.000000 0.688355 -2.612193 1.396061 0.000000 0.000000 0.000000 -0.128224 0.029811 -26.234945 -0.000000 0.000000 0.000000 -0.000000 0.000000 0.000000 0.000000 0.000000 0.000000
37.737758 69.957931 368.967516 0.219573 0.054339 26.115959 -0.221075 0.047863 -26.115971 -0.000000 0.000000 0.000000 -0.000000 0.000000 0.000000 0.000000 0.000000 0.000000 -0.000000 0.000000 0.000000 -0.000000 0.000000 0.000000 1.496521 1.328489 -0.625231 -2.173535 -9.042340 -5.377108 0.000000 0.000000 0.000000 0.000000 0.000000 0.000000 -0.000000 0.000000 0.000000 -0.324235 -1.323155 0.848968 -0.839392 4.198890 -2.847336 2.634662 -1.010334 -1.298202 0.000000 0.000000 0.000000 0.000000 0.000000 0.000000 -0.221075 0.047863 -26.115971 -0.000000 0.000000 0.000000 1.396448 -5.056421 2.746285 0.000000 0.000000 0.000000 -0.221075 0.047863 -26.115971 -0.000000 0.000000 0.000000 -0.000000 0.000000 0.000000 0.000000 0.000000 0.000000
37.783421 69.956103 368.963565 0.274024 0.073169 26.021735 -0.278345 0.054466 -26.021778 -0.000000 0.000000 0.000000 -0.000000 0.000000 0.000000 0.000000 0.000000 0.000000 -0.000000 0.000000 0.000000 -0.664272 -0.656405 0.371197 2.730101 2.468919 -1.219948 -3.275835 -12.615510 -7.565528 0.000000 0.000000 0.000000 0.000000 0.000000 0.000000 -0.000000 0.000000 0.000000 -0.429306 -1.754950 1.124834 -1.222609 5.763581 -3.927386 3.696980 -1.441188 -1.571342 0.000000 0.000000 0.000000 0.000000 0.000000 0.000000 -0.278345 0.054466 -26.021778 -0.000000 0.000000 0.000000 2.070116 -7.194366 3.968928 0.000000 0.000000 0.000000 -0.278345 0.054466 -26.021778 -0.000000 0.000000 0.000000 -0.000000 0.000000 0.000000 0.000000 0.000000 0.000000
37.816100 69.953737 368.960313 0.291470 0.086415 25.952169 -0.299894 0.049853 -25.952258 -0.000000 0.000000 0.000000 -0.000000 0.000000 0.000000 0.000000 0.000000 0.000000 -0.000000 0.000000 0.000000 -0.809380 -0.736517 0.451669 3.301368 2.936811 -1.418914 -4.251696 -15.175635 -9.078152 0.000000 0.000000 0.000000 0.000000 0.000000 0.000000 -0.000000 0.000000 0.000000 -0.501893 -2.043222 1.309380 -1.581077 6.888834 -4.742887 4.486567 -1.822232 -1.530471 0.000000 0.000000 0.000000 0.000000 0.000000 0.000000 -0.299894 0.049853 -25.952258 -0.000000 0.000000 0.000000 2.643752 -8.892725 4.973637 0.000000 0.000000 0.000000 -0.299894 0.049853 -25.952258 -0.000000 0.000000 0.000000 -0.000000 0.000000 0.000000 0.000000 0.000000 0.000000
37.835794 69.950832 368.957760 0.271875 0.094065 25.907213 -0.285651 0.034175 -25.907351 -0.000000 0.000000 0.000000 -0.000000 0.000000 0.000000 0.000000 0.000000 0.000000 -0.000000 0.000000 0.000000 -0.916651 -0.746923 0.511164 3.697928 3.231920 -1.504061 -4.975936 -16.500896 -9.672431 0.000000 0.000000 0.000000 0.000000 0.000000 0.000000 -0.000000 0.000000 0.000000 -0.544444 -2.192357 1.406064 -1.912374 7.521440 -5.270303 4.948436 -2.148021 -1.162875 0.000000 0.000000 0.000000 0.000000 0.000000 0.000000 -0.285651 0.034175 -25.907351 -0.000000 0.000000 0.000000 3.051316 -10.039886 5.674624 0.000000 0.000000 0.000000 -0.285651 0.034175 -25.907351 -0.000000 0.000000 0.000000 -0.000000 0.000000 0.000000 0.000000 0.000000 0.000000
37.848307 69.948675 368.967722 0.202439 0.101554 25.850663 -0.226462 -0.003123 -25.850848 -0.000000 0.000000 0.000000 -0.000000 0.000000 0.000000 0.000000 0.000000 0.000000 -0.000000 0.000000 0.000000 -0.896717 -0.533578 0.500502 3.529696 2.873945 -1.465937 -5.353335 -15.088854 -7.443242 0.000000 0.000000 0.000000 0.000000 0.000000 0.000000 -0.000000 0.000000 0.000000 -0.502391 -2.049662 1.313206 -1.871309 7.012821 -4.961100 4.295167 -1.682235 -1.652939 0.000000 0.000000 0.000000 0.000000 0.000000 0.000000 -0.226462 -0.003123 -25.850848 -0.000000 0.000000 0.000000 3.676200 -11.702969 6.689830 0.000000 0.000000 0.000000 -0.226462 -0.003123 -25.850848 -0.000000 0.000000 0.000000 -0.000000 0.000000 0.000000 0.000000 0.000000 0.000000
37.837037 69.948869 368.972446 0.106041 0.089562 25.848072 -0.134480 -0.034370 -25.848195 -0.000000 0.000000 0.000000 -0.000000 0.000000 0.000000 0.000000 0.000000 0.000000 -0.000000 0.000000 0.000000 -0.923775 -0.381838 0.515853 3.227636 2.318665 -1.609056 -4.811607 -12.716852 -5.316507 0.000000 0.000000 0.000000 0.000000 0.000000 0.000000 -0.000000 0.000000 0.000000 -0.436239 -1.930989 1.227719 -2.325779 6.629667 -4.967145 3.213493 -1.310340 -1.606281 0.000000 0.000000 0.000000 0.000000 0.000000 0.000000 -0.134480 -0.034370 -25.848195 -0.000000 0.000000 0.000000 3.897031 -12.275860 7.086121 0.000000 0.000000 0.000000 -0.134480 -0.034370 -25.848195 -0.000000 0.000000 0.000000 -0.000000 0.000000 0.000000 0.000000 0.000000 0.000000
37.813996 69.947763 368.959977 -0.025269 0.085847 25.907942 -0.014779 -0.088260 -25.907935 -0.000000 0.000000 0.000000 1.160334 -0.182375 -0.131667 0.000000 0.000000 0.000000 -0.000000 0.000000 0.000000 -0.949741 -0.256124 0.530588 3.127714 2.296884 -1.078709 -6.093067 -14.805403 -6.279653 0.000000 0.000000 0.000000 0.000000 0.000000 0.000000 -0.000000 0.000000 0.000000 -0.436461 -1.925888 1.224848 -2.149628 7.539293 -5.278745 3.376487 -3.259147 0.623608 0.000000 0.000000 0.000000 0.000000 0.000000 0.000000 -0.014779 -0.088260 -25.907935 -0.000000 0.000000 0.000000 3.663342 -11.686370 6.751194 0.000000 0.000000 0.000000 -0.014779 -0.088260 -25.907935 -0.000000 0.000000 0.000000 -0.000000 0.000000 0.000000 0.000000 0.000000 0.000000
37.791831 69.940021 368.945757 -0.164419 0.081559 26.034853 0.111938 -0.145449 -26.034594 -0.933914 -0.008512 -0.070624 2.639149 -0.374594 -0.135508 0.000000 0.000000 0.000000 0.933903 0.009662 0.070475 -0.967445 -0.167091 0.540665 2.656081 1.883239 -0.648247 -5.445820 -13.451960 -5.929204 0.000000 0.000000 0.000000 0.000000 0.000000 0.000000 0.933903 0.009662 0.070475 -0.644882 -1.953884 1.295665 -3.412039 6.983115 -5.907567 5.460741 -4.055040 4.225558 0.000000 0.000000 0.000000 0.000000 0.000000 0.000000 0.111938 -0.145449 -26.034594 -0.000000 0.000000 0.000000 3.025521 -9.994675 5.734880 0.000000 0.000000 0.000000 0.111938 -0.145449 -26.034594 -0.000000 0.000000 0.000000 -0.000000 0.000000 0.000000 0.000000 0.000000 0.000000
